HIERARCHY
ROOT hip
{
  OFFSET 0.146333 93.2371 0.453234
  CHANNELS 6 Xposition Yposition Zposition Zrotation Xrotation Yrotation
  JOINT abdomen
  {
    OFFSET 0 7.2397 0
    CHANNELS 6 Xposition Yposition Zposition Zrotation Xrotation Yrotation
    JOINT chest
    {
      OFFSET 0 16.546 0
      CHANNELS 6 Xposition Yposition Zposition Zrotation Xrotation Yrotation
      JOINT neck
      {
        OFFSET 0 34.2149 0
        CHANNELS 6 Xposition Yposition Zposition Zrotation Xrotation Yrotation
        JOINT head
        {
          OFFSET 0 6.2923 0
          CHANNELS 6 Xposition Yposition Zposition Zrotation Xrotation Yrotation
          End Site
          {
            OFFSET 0 21.2161 0
          }
        }
      }
      JOINT lCollar
      {
        OFFSET 4.0639 26.6115 -1.1234
        CHANNELS 6 Xposition Yposition Zposition Zrotation Xrotation Yrotation
        JOINT lShldr
        {
          OFFSET 14.1772 0 0
          CHANNELS 6 Xposition Yposition Zposition Zrotation Xrotation Yrotation
          JOINT lForeArm
          {
            OFFSET 26.1234 0 0
            CHANNELS 6 Xposition Yposition Zposition Zrotation Xrotation Yrotation
            JOINT lHand
            {
              OFFSET 27.7188 0 0
              CHANNELS 6 Xposition Yposition Zposition Zrotation Xrotation Yrotation
              JOINT lThumb1
              {
                OFFSET 2.2979 -0.4685 1.8313
                CHANNELS 6 Xposition Yposition Zposition Zrotation Xrotation Yrotation
                JOINT lThumb2
                {
                  OFFSET 5.2953 0 0
                  CHANNELS 6 Xposition Yposition Zposition Zrotation Xrotation Yrotation
                  JOINT lThumb3
                  {
                    OFFSET 3.0181 0 0
                    CHANNELS 6 Xposition Yposition Zposition Zrotation Xrotation Yrotation
                    End Site
                    {
                      OFFSET 2.6294 0 0
                    }
                  }
                }
              }
              JOINT lIndex1
              {
                OFFSET 9.3793 0.2991 2.5924
                CHANNELS 6 Xposition Yposition Zposition Zrotation Xrotation Yrotation
                JOINT lIndex2
                {
                  OFFSET 4.3461 0 0
                  CHANNELS 6 Xposition Yposition Zposition Zrotation Xrotation Yrotation
                  JOINT lIndex3
                  {
                    OFFSET 2.1666 0 0
                    CHANNELS 6 Xposition Yposition Zposition Zrotation Xrotation Yrotation
                    End Site
                    {
                      OFFSET 2.2048 0 0
                    }
                  }
                }
              }
              JOINT lMid1
              {
                OFFSET 9.4769 0.8376 0.2947
                CHANNELS 6 Xposition Yposition Zposition Zrotation Xrotation Yrotation
                JOINT lMid2
                {
                  OFFSET 4.772 0 0
                  CHANNELS 6 Xposition Yposition Zposition Zrotation Xrotation Yrotation
                  JOINT lMid3
                  {
                    OFFSET 2.8722 0 0
                    CHANNELS 6 Xposition Yposition Zposition Zrotation Xrotation Yrotation
                    End Site
                    {
                      OFFSET 2.0959 0 0
                    }
                  }
                }
              }
              JOINT lRing1
              {
                OFFSET 8.6586 1.0176 -1.7016
                CHANNELS 6 Xposition Yposition Zposition Zrotation Xrotation Yrotation
                JOINT lRing2
                {
                  OFFSET 4.5461 0 0
                  CHANNELS 6 Xposition Yposition Zposition Zrotation Xrotation Yrotation
                  JOINT lRing3
                  {
                    OFFSET 2.506 0 0
                    CHANNELS 6 Xposition Yposition Zposition Zrotation Xrotation Yrotation
                    End Site
                    {
                      OFFSET 2.2023 0 0
                    }
                  }
                }
              }
              JOINT lPinky1
              {
                OFFSET 7.6901 0.6618 -3.9096
                CHANNELS 6 Xposition Yposition Zposition Zrotation Xrotation Yrotation
                JOINT lPinky2
                {
                  OFFSET 3.2119 0 0
                  CHANNELS 6 Xposition Yposition Zposition Zrotation Xrotation Yrotation
                  JOINT lPinky3
                  {
                    OFFSET 1.924 0 0
                    CHANNELS 6 Xposition Yposition Zposition Zrotation Xrotation Yrotation
                    End Site
                    {
                      OFFSET 1.7829 0 0
                    }
                  }
                }
              }
            }
          }
        }
      }
      JOINT rCollar
      {
        OFFSET -4.0677 26.6109 -1.1234
        CHANNELS 6 Xposition Yposition Zposition Zrotation Xrotation Yrotation
        JOINT rShldr
        {
          OFFSET -14.1772 0 0
          CHANNELS 6 Xposition Yposition Zposition Zrotation Xrotation Yrotation
          JOINT rForeArm
          {
            OFFSET -26.1234 0 0
            CHANNELS 6 Xposition Yposition Zposition Zrotation Xrotation Yrotation
            JOINT rHand
            {
              OFFSET -27.7188 0 0
              CHANNELS 6 Xposition Yposition Zposition Zrotation Xrotation Yrotation
              JOINT rThumb1
              {
                OFFSET -2.2979 -0.4684 1.8313
                CHANNELS 6 Xposition Yposition Zposition Zrotation Xrotation Yrotation
                JOINT rThumb2
                {
                  OFFSET -5.2953 0 0
                  CHANNELS 6 Xposition Yposition Zposition Zrotation Xrotation Yrotation
                  JOINT rThumb3
                  {
                    OFFSET -3.0181 0 0
                    CHANNELS 6 Xposition Yposition Zposition Zrotation Xrotation Yrotation
                    End Site
                    {
                      OFFSET -2.6294 0 0
                    }
                  }
                }
              }
              JOINT rIndex1
              {
                OFFSET -9.3793 0.2991 2.5924
                CHANNELS 6 Xposition Yposition Zposition Zrotation Xrotation Yrotation
                JOINT rIndex2
                {
                  OFFSET -4.3461 0 0
                  CHANNELS 6 Xposition Yposition Zposition Zrotation Xrotation Yrotation
                  JOINT rIndex3
                  {
                    OFFSET -2.1666 0 0
                    CHANNELS 6 Xposition Yposition Zposition Zrotation Xrotation Yrotation
                    End Site
                    {
                      OFFSET -2.2048 0 0
                    }
                  }
                }
              }
              JOINT rMid1
              {
                OFFSET -9.4769 0.8376 0.2947
                CHANNELS 6 Xposition Yposition Zposition Zrotation Xrotation Yrotation
                JOINT rMid2
                {
                  OFFSET -4.772 0 0
                  CHANNELS 6 Xposition Yposition Zposition Zrotation Xrotation Yrotation
                  JOINT rMid3
                  {
                    OFFSET -2.8722 0 0
                    CHANNELS 6 Xposition Yposition Zposition Zrotation Xrotation Yrotation
                    End Site
                    {
                      OFFSET -2.0959 0 0
                    }
                  }
                }
              }
              JOINT rRing1
              {
                OFFSET -8.6586 1.0176 -1.7016
                CHANNELS 6 Xposition Yposition Zposition Zrotation Xrotation Yrotation
                JOINT rRing2
                {
                  OFFSET -4.5461 0 0
                  CHANNELS 6 Xposition Yposition Zposition Zrotation Xrotation Yrotation
                  JOINT rRing3
                  {
                    OFFSET -2.506 0 0
                    CHANNELS 6 Xposition Yposition Zposition Zrotation Xrotation Yrotation
                    End Site
                    {
                      OFFSET -2.2023 0 0
                    }
                  }
                }
              }
              JOINT rPinky1
              {
                OFFSET -7.6901 0.6618 -3.9096
                CHANNELS 6 Xposition Yposition Zposition Zrotation Xrotation Yrotation
                JOINT rPinky2
                {
                  OFFSET -3.2119 0 0
                  CHANNELS 6 Xposition Yposition Zposition Zrotation Xrotation Yrotation
                  JOINT rPinky3
                  {
                    OFFSET -1.924 0 0
                    CHANNELS 6 Xposition Yposition Zposition Zrotation Xrotation Yrotation
                    End Site
                    {
                      OFFSET -1.7829 0 0
                    }
                  }
                }
              }
            }
          }
        }
      }
    }
  }
  JOINT lThigh
  {
    OFFSET 8.7379 -0.0029 0.0005
    CHANNELS 6 Xposition Yposition Zposition Zrotation Xrotation Yrotation
    JOINT lShin
    {
      OFFSET 0 -46.6676 0
      CHANNELS 6 Xposition Yposition Zposition Zrotation Xrotation Yrotation
      JOINT lFoot
      {
        OFFSET 0 -40.1476 0
        CHANNELS 6 Xposition Yposition Zposition Zrotation Xrotation Yrotation
        JOINT lToes
        {
          OFFSET 0 -8.8846 14.2294
          CHANNELS 6 Xposition Yposition Zposition Zrotation Xrotation Yrotation
          End Site
          {
            OFFSET 0 0 6.296
          }
        }
      }
    }
  }
  JOINT rThigh
  {
    OFFSET -8.7379 0.0029 -0.0005
    CHANNELS 6 Xposition Yposition Zposition Zrotation Xrotation Yrotation
    JOINT rShin
    {
      OFFSET 0 -46.6676 0
      CHANNELS 6 Xposition Yposition Zposition Zrotation Xrotation Yrotation
      JOINT rFoot
      {
        OFFSET 0 -40.1476 0
        CHANNELS 6 Xposition Yposition Zposition Zrotation Xrotation Yrotation
        JOINT rToes
        {
          OFFSET 0 -8.8846 14.2294
          CHANNELS 6 Xposition Yposition Zposition Zrotation Xrotation Yrotation
          End Site
          {
            OFFSET 0 0 6.296
          }
        }
      }
    }
  }
}
MOTION
Frames:	4
Frame Time:	0.0333333
2.66682 90.0079 65.5759 -0.567924 5.64302 -6.74639 0 7.2397 1.42109e-14 2.15722 -1.89522 -4.67213 3.55271e-15 16.546 1.42109e-14 3.95852 -2.07804 -9.5683 0 34.2149 7.10543e-15 0.777029 35.967 12.6114 0 6.2923 0 -13.147 -32.5491 -4.42852 4.0639 26.6115 -1.1234 -8.72961 -10.2218 -2.30657 14.1772 -2.84217e-14 0 -64.1679 21.0925 -10.2576 26.1234 0 -7.10543e-15 -11.6273 0.699599 -45.0463 27.7188 0 -1.42109e-14 -175.807 -61.3381 169.531 2.2979 -0.4685 1.8313 59.0255 60.7452 -90.3656 5.2953 -1.77636e-15 0 -4.1406 2.81733 2.80294 3.0181 1.77636e-15 1.42109e-14 12.4883 -9.15638e-05 -6.18368e-06 9.3793 0.2991 2.5924 -27.1588 3.06143 9.81003 4.3461 0 0 -80.9589 -0.309236 -10.2296 2.1666 0 0 -2.16839 5.53003e-06 8.91943e-06 9.4769 0.8376 0.2947 -59.5968 -2.81059 4.9757 4.772 -7.10543e-15 -7.10543e-15 -60.4481 -0.970745 -2.06456 2.8722 -1.42109e-14 7.10543e-15 3.9574 0.071098 0.399402 8.6586 1.0176 -1.7016 -69.6865 -4.85129 1.48884 4.5461 0 -3.55271e-15 -58.4306 2.44837 0.49372 2.506 -1.42109e-14 7.10543e-15 6.7605 2.91429e-06 -9.94264e-05 7.6901 0.6618 -3.9096 -86.5986 -14.1902 -10.6992 3.2119 -7.10543e-15 -7.10543e-15 -53.9042 2.39764 8.80912 1.924 0 3.55271e-15 4.4131 2.86699e-06 -1.2307e-06 -4.0677 26.6109 -1.1234 4.21551 0.964339 -9.69435 -14.1772 2.84217e-14 0 29.2281 60.6915 32.3533 -26.1234 1.42109e-14 -7.10543e-15 -4.69778 -7.11069 103.302 -27.7188 0 1.42109e-14 -10.5944 -49.4391 -30.3097 -2.2979 -0.4684 1.8313 -61.3609 78.9886 105.833 -5.2953 2.84217e-14 7.10543e-15 1.59315 22.7039 -12.993 -3.0181 0 -1.42109e-14 -12.4883 -0.000106538 0.000112048 -9.3793 0.2991 2.5924 0.27125 1.24495 0.883636 -4.3461 -7.10543e-15 0 22.4841 -1.87069 -1.69159 -2.1666 -7.10543e-15 0 2.16819 1.35258e-05 1.86504e-06 -9.4769 0.8376 0.2947 45.3529 3.14753 -0.429119 -4.772 7.10543e-15 0 111.216 -9.50312 0.758675 -2.8722 -1.77636e-15 -2.84217e-14 -3.9575 0.0709988 -0.399407 -8.6586 1.0176 -1.7016 51.4523 -7.26059 2.85111 -4.5461 -7.10543e-15 0 96.2466 7.185 1.49986 -2.506 0 0 -6.7605 4.15105e-06 -8.03668e-07 -7.6901 0.6618 -3.9096 67.3827 -14.6597 11.7246 -3.2119 -7.10543e-15 1.42109e-14 80.4733 2.2409 -7.42843 -1.924 -7.10543e-15 0 -4.413 1.84178e-06 -9.57931e-06 8.7379 -0.0029 0.0005 0.955042 2.46411 14.9963 0 -46.6676 7.10543e-15 4.76453 46.3862 4.99622 1.77636e-15 -40.1476 -5.32907e-15 -9.35876 -6.69488 7.23149 1.77636e-15 -8.8846 14.2294 0.0001 -6.36111e-15 -1.59028e-15 -8.7379 0.0029 -0.0005 0.22733 -38.3413 -3.51951 8.88178e-16 -46.6676 0 -2.96522 32.0448 0.767698 0 -40.1476 -1.42109e-14 0.811028 -1.26387 -20.1531 -7.10543e-15 -8.8846 14.2294 -1.98785e-16 3.97569e-16 -6.36111e-15 
1.61382 90.0663 68.9611 -1.13025 5.11991 -6.19449 -8.88178e-16 7.2397 0 2.43285 -1.58949 -4.4655 -1.77636e-15 16.546 0 4.46661 -1.48129 -9.15579 0 34.2149 0 1.3273 36.1078 12.0309 0 6.2923 7.10543e-15 -12.1548 -32.654 -4.38277 4.0639 26.6115 -1.1234 -8.46457 -10.3455 -1.89706 14.1772 0 0 -64.2827 21.6838 -10.7751 26.1234 0 7.10543e-15 -11.5508 0.539172 -43.8496 27.7188 -1.42109e-14 0 -173.742 -61.2457 171.653 2.2979 -0.4685 1.8313 59.0347 60.9577 -90.6304 5.2953 3.55271e-15 -1.42109e-14 -4.14102 2.81825 2.80132 3.0181 3.55271e-15 -1.42109e-14 12.4883 -9.15638e-05 -6.18368e-06 9.3793 0.2991 2.5924 -27.119 2.84143 9.77373 4.3461 -1.42109e-14 0 -80.8811 -0.300865 -10.1641 2.1666 1.42109e-14 -3.55271e-15 -2.16839 5.53003e-06 8.91943e-06 9.4769 0.8376 0.2947 -59.1293 -3.04254 5.03653 4.772 7.10543e-15 -7.10543e-15 -60.5423 -1.21446 -1.97774 2.8722 0 -7.10543e-15 3.9574 0.071098 0.399402 8.6586 1.0176 -1.7016 -69.346 -5.00792 1.51126 4.5461 -7.10543e-15 0 -58.4143 2.44759 0.494002 2.506 1.42109e-14 0 6.7605 2.91429e-06 -9.94264e-05 7.6901 0.6618 -3.9096 -85.968 -14.3791 -10.627 3.2119 -7.10543e-15 -7.10543e-15 -54.457 2.36149 8.86788 1.924 0 0 4.4131 2.86699e-06 -1.2307e-06 -4.0677 26.6109 -1.1234 4.70081 0.749621 -9.7012 -14.1772 -2.84217e-14 0 28.6725 61.2575 32.3091 -26.1234 0 0 -4.84332 -7.1703 102.923 -27.7188 -1.42109e-14 -1.42109e-14 -10.2377 -49.3279 -29.192 -2.2979 -0.4684 1.8313 -61.7199 79.1088 106.085 -5.2953 2.84217e-14 0 1.48016 22.6971 -12.9171 -3.0181 0 7.10543e-15 -12.4883 -0.000106538 0.000112048 -9.3793 0.2991 2.5924 0.103474 1.25573 0.720869 -4.3461 7.10543e-15 0 22.4095 -1.86614 -1.68197 -2.1666 0 0 2.16819 1.35258e-05 1.86504e-06 -9.4769 0.8376 0.2947 45.3136 2.98028 -0.669784 -4.772 -7.10543e-15 -2.84217e-14 111.14 -9.47724 0.83194 -2.8722 1.77636e-15 0 -3.9575 0.0709988 -0.399407 -8.6586 1.0176 -1.7016 51.5275 -7.52643 2.64704 -4.5461 1.42109e-14 0 96.3203 7.19348 1.54199 -2.506 0 0 -6.7605 4.15105e-06 -8.03668e-07 -7.6901 0.6618 -3.9096 67.7127 -14.97 11.6187 -3.2119 1.42109e-14 0 80.4187 2.22325 -7.37938 -1.924 0 0 -4.413 1.84178e-06 -9.57931e-06 8.7379 -0.0029 0.0005 2.00555 -0.587375 13.9425 0 -46.6676 7.10543e-15 6.47942 53.9034 3.18126 0 -40.1476 -3.55271e-15 -8.74086 1.70732 9.48096 0 -8.8846 14.2294 0.0001 0 -6.36111e-15 -8.7379 0.0029 -0.0005 1.09996 -37.2341 -3.34196 0 -46.6676 0 -3.44473 35.4446 0.964016 0 -40.1476 0 1.02741 -3.01731 -20.1782 0 -8.8846 14.2294 1.2424e-16 0 6.36111e-15 
0.831148 89.9634 71.9364 -1.31125 4.55265 -5.40742 0 7.2397 1.42109e-14 2.53003 -1.20616 -4.17735 0 16.546 1.42109e-14 4.65626 -0.71074 -8.55064 -7.10543e-15 34.2149 0 1.85484 36.2276 11.2101 -7.10543e-15 6.2923 -7.10543e-15 -10.8365 -32.644 -4.34442 4.0639 26.6115 -1.1234 -8.4532 -10.4215 -1.47068 14.1772 2.84217e-14 0 -64.2068 22.4341 -12.0719 26.1234 0 0 -11.4696 0.178079 -42.682 27.7188 0 -1.42109e-14 -171.671 -61.4493 173.603 2.2979 -0.4685 1.8313 59.0312 61.1856 -90.8843 5.2953 0 0 -4.14148 2.81917 2.79972 3.0181 -1.77636e-15 0 12.4883 -9.15638e-05 -6.18368e-06 9.3793 0.2991 2.5924 -27.08 2.62043 9.73759 4.3461 1.42109e-14 7.10543e-15 -80.8029 -0.292714 -10.0985 2.1666 0 -3.55271e-15 -2.16839 5.53003e-06 8.91943e-06 9.4769 0.8376 0.2947 -58.6595 -3.27625 5.09172 4.772 2.13163e-14 7.10543e-15 -60.6363 -1.45849 -1.88906 2.8722 0 0 3.9574 0.071098 0.399402 8.6586 1.0176 -1.7016 -69.0044 -5.16424 1.53059 4.5461 0 3.55271e-15 -58.3979 2.44682 0.494315 2.506 0 0 6.7605 2.91429e-06 -9.94264e-05 7.6901 0.6618 -3.9096 -85.3348 -14.5642 -10.5588 3.2119 7.10543e-15 -3.55271e-15 -55.0116 2.32424 8.92641 1.924 2.84217e-14 0 4.4131 2.86699e-06 -1.2307e-06 -4.0677 26.6109 -1.1234 5.05894 0.53672 -10.0109 -14.1772 -2.84217e-14 0 28.8213 61.2924 31.6014 -26.1234 0 0 -4.98637 -7.22676 102.569 -27.7188 0 0 -8.80568 -48.964 -27.1757 -2.2979 -0.4684 1.8313 -62.0914 79.2299 106.35 -5.2953 0 -1.42109e-14 1.36679 22.6905 -12.8409 -3.0181 -1.42109e-14 0 -12.4883 -0.000106538 0.000112048 -9.3793 0.2991 2.5924 -0.0647922 1.26491 0.557385 -4.3461 -7.10543e-15 -2.84217e-14 22.3346 -1.86157 -1.67228 -2.1666 -7.10543e-15 0 2.16819 1.35258e-05 1.86504e-06 -9.4769 0.8376 0.2947 45.2708 2.81262 -0.911184 -4.772 7.10543e-15 0 111.063 -9.45086 0.905363 -2.8722 0 0 -3.9575 0.0709988 -0.399407 -8.6586 1.0176 -1.7016 51.5981 -7.79093 2.43961 -4.5461 -1.42109e-14 0 96.3943 7.20181 1.58425 -2.506 -7.10543e-15 0 -6.7605 4.15105e-06 -8.03668e-07 -7.6901 0.6618 -3.9096 68.0393 -15.2774 11.5059 -3.2119 7.10543e-15 0 80.3638 2.20567 -7.33007 -1.924 0 0 -4.413 1.84178e-06 -9.57931e-06 8.7379 -0.0029 0.0005 2.9074 -5.33231 13.4191 1.77636e-15 -46.6676 -1.42109e-14 9.45275 62.7221 -0.0834671 -2.66454e-15 -40.1476 3.55271e-15 -8.4919 10.7093 10.9449 1.77636e-15 -8.8846 14.2294 0.0001 -4.77083e-15 -7.95139e-16 -8.7379 0.0029 -0.0005 1.41896 -36.2266 -3.16017 0 -46.6676 0 -4.00595 39.1166 1.22042 0 -40.1476 0 1.28688 -7.12791 -20.5695 0 -8.8846 14.2294 9.93923e-17 0 -0 
0.310276 89.969 74.7786 -1.35779 3.95481 -4.60273 -4.44089e-16 7.2397 1.42109e-14 2.60009 -0.830291 -3.78645 -1.77636e-15 16.546 1.42109e-14 4.6452 0.0568458 -7.73227 0 34.2149 0 2.2724 36.325 10.2412 0 6.2923 2.13163e-14 -9.63127 -32.5379 -4.52221 4.0639 26.6115 -1.1234 -8.87 -10.4102 -1.11348 14.1772 -2.84217e-14 0 -63.7492 23.0594 -13.5366 26.1234 1.42109e-14 0 -11.4381 -0.232422 -42.0711 27.7188 0 0 -170.249 -61.9187 174.702 2.2979 -0.4685 1.8313 59.0146 61.4284 -91.1258 5.2953 -3.55271e-15 -1.42109e-14 -4.14194 2.82009 2.79812 3.0181 -1.77636e-15 2.84217e-14 12.4883 -9.15638e-05 -6.18368e-06 9.3793 0.2991 2.5924 -27.042 2.39925 9.70173 4.3461 0 0 -80.7247 -0.284834 -10.0329 2.1666 0 -7.10543e-15 -2.16839 5.53003e-06 8.91943e-06 9.4769 0.8376 0.2947 -58.1888 -3.51079 5.14099 4.772 0 7.10543e-15 -60.7297 -1.70198 -1.7988 2.8722 0 0 3.9574 0.071098 0.399402 8.6586 1.0176 -1.7016 -68.6628 -5.31963 1.54673 4.5461 7.10543e-15 7.10543e-15 -58.3815 2.44604 0.494621 2.506 0 3.55271e-15 6.7605 2.91429e-06 -9.94264e-05 7.6901 0.6618 -3.9096 -84.7015 -14.745 -10.495 3.2119 -7.10543e-15 3.55271e-15 -55.5662 2.28602 8.98453 1.924 0 7.10543e-15 4.4131 2.86699e-06 -1.2307e-06 -4.0677 26.6109 -1.1234 5.31842 0.316998 -10.4074 -14.1772 0 0 28.8008 60.9603 31.0471 -26.1234 0 7.10543e-15 -5.11346 -7.28175 102.231 -27.7188 0 0 -6.99247 -48.7262 -24.8726 -2.2979 -0.4684 1.8313 -62.4748 79.3513 106.627 -5.2953 0 -1.42109e-14 1.25344 22.6841 -12.7646 -3.0181 2.84217e-14 -7.10543e-15 -12.4883 -0.000106538 0.000112048 -9.3793 0.2991 2.5924 -0.232985 1.2725 0.39383 -4.3461 0 0 22.2597 -1.857 -1.6626 -2.1666 -7.10543e-15 0 2.16819 1.35258e-05 1.86504e-06 -9.4769 0.8376 0.2947 45.2247 2.64521 -1.15251 -4.772 0 0 110.987 -9.42408 0.978689 -2.8722 0 2.84217e-14 -3.9575 0.0709988 -0.399407 -8.6586 1.0176 -1.7016 51.6636 -8.05297 2.22951 -4.5461 1.42109e-14 -2.84217e-14 96.4683 7.20994 1.62656 -2.506 0 -2.84217e-14 -6.7605 4.15105e-06 -8.03668e-07 -7.6901 0.6618 -3.9096 68.3611 -15.5807 11.3863 -3.2119 0 -2.84217e-14 80.3091 2.18822 -7.28072 -1.924 -3.55271e-15 0 -4.413 1.84178e-06 -9.57931e-06 8.7379 -0.0029 0.0005 3.52874 -10.4646 13.4309 0 -46.6676 0 14.2898 70.8548 -5.04966 1.77636e-15 -40.1476 3.55271e-15 -7.49098 14.6099 10.4112 1.77636e-15 -8.8846 14.2294 0.0001 -7.95139e-16 -3.97569e-16 -8.7379 0.0029 -0.0005 1.45175 -34.713 -2.98728 8.88178e-16 -46.6676 0 -4.41368 41.5834 1.40702 -1.77636e-15 -40.1476 1.42109e-14 1.62115 -10.526 -21.336 0 -8.8846 14.2294 9.93923e-17 -4.96962e-17 3.18055e-15 
